<svg xmlns="http://www.w3.org/2000/svg" viewBox="520 235 445 520" fill="#111827">
  <g transform="translate(0.000000,1024.000000) scale(0.100000,-0.100000)" fill="#111827" stroke="none">
    <path d="M7200 7665 c-184 -42 -310 -154 -388 -347 l-12 -28 -134 1 c-144 0 -170 -6 -212 -53 -50 -54 -54 -75 -54 -279 0 -173 2 -197 20 -235 21 -42 70 -84 123 -103 39 -15 1517 -15 1570 0 21 6 56 26 77 45 66 60 70 78 70 296 0 218 -5 236 -74 293 -38 30 -39 30 -189 35 l-151 5 -17 48 c-37 102 -138 221 -229 267 -122 62 -275 83 -400 55z m206 -294 c73 -33 108 -102 94 -181 -15 -83 -72 -132 -159 -138 -52 -4 -67 -1 -107 23 -80 47 -105 139 -61 225 40 80 143 112 233 71z"/>
    <path d="M5810 7094 c-151 -40 -283 -179 -319 -335 -7 -29 -11 -555 -11 -1500 0 -1578 -3 -1495 52 -1604 28 -53 121 -149 176 -180 102 -57 62 -55 1124 -55 538 0 978 2 978 6 0 3 -11 22 -25 42 -30 44 -51 113 -60 199 l-7 63 -908 2 c-904 3 -909 3 -937 24 -15 11 -38 36 -50 54 l-23 33 0 1415 c0 1399 0 1416 20 1456 37 76 52 81 248 84 l172 3 0 155 0 154 -187 -1 c-132 0 -204 -5 -243 -15z"/>
    <path d="M8410 6955 l0 -155 169 0 c158 0 170 -1 201 -22 18 -13 43 -36 54 -51 21 -28 21 -35 24 -768 l2 -739 160 0 160 0 0 743 c0 473 -4 758 -11 787 -28 122 -113 237 -221 299 -89 50 -150 61 -355 61 l-183 0 0 -155z"/>
    <path d="M6355 6161 c-185 -84 -147 -354 53 -378 166 -19 289 130 223 272 -49 106 -172 153 -276 106z"/>
    <path d="M6914 6050 c-31 -12 -54 -49 -54 -86 0 -24 8 -39 31 -58 l31 -26 727 0 728 0 27 25 c26 24 35 71 20 110 -18 45 -21 45 -776 44 -392 0 -723 -4 -734 -9z"/>
    <path d="M6365 5457 c-56 -23 -84 -48 -110 -100 -30 -60 -31 -107 -6 -162 35 -76 111 -125 194 -125 53 0 135 39 163 77 72 97 48 232 -51 293 -43 27 -145 36 -190 17z"/>
    <path d="M6889 5321 c-41 -41 -40 -90 2 -125 l31 -26 513 0 513 0 31 26 c42 35 43 84 2 125 l-29 29 -517 0 -517 0 -29 -29z"/>
    <path d="M8170 5014 c-67 -22 -151 -83 -188 -138 -63 -95 -63 -95 -60 -707 l3 -554 26 -56 c56 -120 156 -187 291 -197 l69 -5 -2 -165 c-2 -161 -1 -166 21 -184 12 -10 38 -18 57 -18 37 0 52 10 379 236 l191 133 370 3 369 3 77 38 c84 41 131 89 169 173 l23 49 0 570 0 570 -27 57 c-34 73 -103 142 -176 176 l-57 27 -745 2 c-623 1 -752 -1 -790 -13z m1340 -439 c33 -35 31 -81 -4 -112 l-27 -23 -535 0 -535 0 -24 25 c-16 15 -25 36 -25 55 0 19 9 40 25 55 l24 25 539 0 539 0 23 -25z m-125 -360 c16 -15 25 -36 25 -55 0 -19 -9 -40 -25 -55 l-24 -25 -476 0 -476 0 -24 25 c-16 15 -25 36 -25 55 0 19 9 40 25 55 l24 25 476 0 476 0 24 -25z m-461 -346 c35 -28 36 -80 1 -114 l-24 -25 -246 0 -246 0 -24 25 c-16 15 -25 36 -25 55 0 19 9 40 25 55 l24 25 244 0 c232 0 246 -1 271 -21z"/>
  </g>
</svg>
